Coordinates
version=1
nRows=34
nColumns=19
inDegrees=yes

Units are S.I. units (second, meters, Newtons, ...)
If the header above contains a line with 'inDegrees', this indicates whether rotational values are in degrees (yes) or radians (no).

endheader
time	pelvis_tilt	pelvis_list	pelvis_rotation	pelvis_tx	pelvis_ty	pelvis_tz	hip_flexion_r	hip_adduction_r	hip_rotation_r	knee_angle_r	knee_angle_r_beta	ankle_angle_r	hip_flexion_l	hip_adduction_l	hip_rotation_l	knee_angle_l	knee_angle_l_beta	ankle_angle_l
     12.34000000	     -4.24597791	    -11.15736638	     -5.38172488	      2.16304076	      0.95482803	      1.02691193	     29.44754751	     15.77068772	    -14.79086599	     19.17659419	      0.33469471	      5.86544691	     -9.96247914	    -14.99563244	    -11.46585121	     72.56087858	      1.26642624	    -17.53836991
     12.34666667	     -3.74854087	    -11.67995556	     -6.26879638	      2.16157871	      0.95089402	      1.02753795	     29.07398682	     16.20704243	    -15.82942108	     22.22131197	      0.38783506	      6.06275539	     -8.97571322	    -15.56001378	    -11.44101190	     76.51628130	      1.33546104	    -17.08099411
     12.35333333	     -3.34031687	    -12.13109170	     -7.20952266	      2.16015094	      0.94655875	      1.02805267	     28.71680576	     16.48761973	    -16.58877668	     25.47937199	      0.44469893	      6.42871868	     -7.83442534	    -16.13256128	    -11.50410247	     80.30330280	      1.40155703	    -16.54158693
     12.36000000	     -3.05802730	    -12.47124870	     -8.18396453	      2.15873400	      0.94192539	      1.02850951	     28.39263058	     16.63444687	    -16.93469492	     28.82292571	      0.50305495	      7.09769894	     -6.47237785	    -16.66378043	    -11.56227810	     83.90013128	      1.46433353	    -15.90817823
     12.36666667	     -2.90785404	    -12.73617864	     -9.17583710	      2.15723203	      0.93708883	      1.02900126	     28.07208315	     16.75504792	    -16.82415430	     32.09501906	      0.56016376	      8.06930584	     -4.85518221	    -17.25165776	    -11.60717929	     87.31962699	      1.52401499	    -15.19809154
     12.37333333	     -2.25819232	    -13.25852991	     -9.97016448	      2.15586469	      0.93305021	      1.02945774	     26.89723115	     17.12323010	    -16.41159028	     34.93950393	      0.60980938	      9.38020435	     -3.79427830	    -18.21946858	    -11.65315745	     90.37634332	      1.57736476	    -14.50595723
     12.38000000	     -3.01265352	    -12.98043785	    -11.03059089	      2.15396306	      0.92753453	      1.03014428	     27.39714158	     16.97792519	    -15.41355580	     38.04643383	      0.66403554	     11.01873077	     -0.72531571	    -18.50029129	    -11.32567105	     93.50832039	      1.63202807	    -13.52394131
     12.38666667	     -2.50734079	    -13.32426373	    -11.64413153	      2.15241365	      0.92405975	      1.03066073	     26.01273015	     17.30570606	    -14.43173853	     40.34646736	      0.70417870	     12.99309936	      0.84501527	    -19.47464885	    -11.01399049	     96.06521122	      1.67665423	    -12.70173976
     12.39333333	     -3.44901676	    -12.93888182	    -12.45461725	      2.15027381	      0.91942755	      1.03147318	     26.25927936	     17.26312012	    -13.04520600	     42.61517382	      0.74377509	     14.98747621	      4.52240498	    -19.88423967	    -10.27880308	     98.63544850	      1.72151334	    -11.72286240
     12.40000000	     -3.67474677	    -12.88013790	    -12.86308663	      2.14839646	      0.91639765	      1.03203792	     25.30531825	     17.38583226	    -11.82105281	     44.18750911	      0.77121752	     17.12445947	      7.47582590	    -20.59274281	     -9.34772456	    100.70455056	      1.75762598	    -10.83086760
     12.40666667	     -3.81935469	    -12.81912433	    -13.03275459	      2.14660496	      0.91427155	      1.03246675	     23.96940642	     17.44908932	    -10.68385183	     45.22509435	      0.78932680	     19.20971647	     10.53050697	    -21.24806576	     -8.15742429	    102.37686910	      1.78681344	     -9.96308085
     12.41333333	     -3.45643523	    -12.72269356	    -13.11260742	      2.14503964	      0.91367377	      1.03289017	     21.73100977	     17.41280778	     -9.34488082	     45.69576247	      0.79754151	     21.15721425	     12.98575432	    -21.73840351	     -7.12205464	    103.47129555	      1.80591479	     -9.14108655
     12.42000000	     -3.54231428	    -12.74658313	    -12.56085487	      2.14368635	      0.91328328	      1.03266352	     19.76507810	     17.28855901	     -8.87116803	     45.57724980	      0.79547307	     22.74063471	     16.40602586	    -22.18798869	     -5.18008619	    104.34523073	      1.82116783	     -8.29420186
     12.42666667	     -3.30434650	    -12.58583110	    -12.01663848	      2.14260707	      0.91410713	      1.03255265	     17.19589238	     16.96181302	     -8.20716920	     45.01502855	      0.78566046	     23.98270147	     19.33447604	    -22.29738888	     -3.58104510	    104.63764489	      1.82627142	     -7.49945755
     12.43333333	     -2.89799329	    -12.41511930	    -11.20810546	      2.14192624	      0.91583864	      1.03219791	     14.22143580	     16.51297962	     -7.82240258	     43.95748459	      0.76720284	     24.75108775	     22.05353100	    -22.17284732	     -1.92170989	    104.45194897	      1.82303042	     -6.72847923
     12.44000000	     -2.34965384	    -12.14949497	    -10.21401900	      2.14163133	      0.91839176	      1.03175846	     10.91222351	     15.91940408	     -7.65711550	     42.45913506	      0.74105170	     24.95281050	     24.49615396	    -21.78313939	     -0.38723517	    103.78301679	      1.81135535	     -5.96222965
     12.44666667	     -1.70416846	    -11.74631692	     -9.10608381	      2.14169161	      0.92160640	      1.03131329	      7.37816548	     15.17881089	     -7.69571343	     40.61731082	      0.70890581	     24.54693003	     26.63330371	    -21.12662485	      0.91612619	    102.65049399	      1.79158910	     -5.21918769
     12.45333333	     -0.97680766	    -11.20583777	     -8.02301008	      2.14210560	      0.92537377	      1.03100726	      3.66216585	     14.34808349	     -7.78971089	     38.51218346	      0.67216440	     23.54129199	     28.36574026	    -20.31675524	      1.81740744	    101.07346220	      1.76406470	     -4.44394714
     12.46000000	     -0.07782060	    -10.45757375	     -7.13712686	      2.14288722	      0.92983753	      1.03108742	     -0.29988501	     13.34130127	     -7.77961167	     36.21414423	      0.63205605	     21.90750620	     29.44428710	    -19.41929876	      2.06824431	     98.98712297	      1.72765121	     -3.64132172
     12.46666667	      0.11816979	     -9.56183384	     -6.14715825	      2.14375814	      0.93361564	      1.03097212	     -3.33714970	     12.26872418	     -8.29384006	     34.02461439	      0.59384155	     19.64426783	     31.24077068	    -18.23135126	      2.39684737	     96.69646556	      1.68767170	     -3.03370012
     12.47333333	      0.69813871	     -8.57440660	     -5.52112323	      2.14503987	      0.93822982	      1.03139109	     -6.85245139	     11.11422157	     -8.45085080	     31.67564116	      0.55284423	     16.87005933	     32.02609738	    -17.25081884	      1.89056883	     93.90850814	      1.63901266	     -2.30958659
     12.48000000	      0.83437222	     -7.51511479	     -4.95219708	      2.14647099	      0.94246597	      1.03175950	     -9.72350496	      9.92230904	     -8.86919748	     29.48670940	      0.51464016	     13.57797592	     33.09103569	    -16.19061182	      1.23648719	     90.85813681	      1.58577364	     -1.74154311
     12.48666667	      0.64992555	     -6.43633836	     -4.37948681	      2.14808280	      0.94640870	      1.03196092	    -12.10018147	      8.74406691	     -9.53677366	     27.43121890	      0.47876509	      9.91154889	     34.28668766	    -15.04987791	      0.48890513	     87.53646230	      1.52779948	     -1.24607693
     12.49333333	      0.61714803	     -5.35900455	     -4.14865589	      2.14986892	      0.95071811	      1.03242196	    -14.53546618	      7.50090769	     -9.94697129	     25.46770824	      0.44449536	      5.83557050	     34.89398840	    -14.18303379	     -0.85948828	     83.85111129	      1.46347797	     -0.80623271
     12.50000000	      0.26612463	     -4.31912910	     -3.83375483	      2.15169170	      0.95463819	      1.03246835	    -16.43042279	      6.31065426	    -10.63886154	     23.71771851	      0.41395228	      1.54793381	     35.69346771	    -13.17883104	     -2.11720836	     79.92896999	      1.39502369	     -0.43991457
     12.50666667	     -0.17231541	     -3.33204178	     -3.59657684	      2.15362272	      0.95842329	      1.03232273	    -18.05683625	      5.13018710	    -11.40451359	     22.19293072	      0.38733971	     -2.82081354	     36.33901721	    -12.23565125	     -3.54960164	     75.75434279	      1.32216270	     -0.12920947
     12.51333333	     -0.57431453	     -2.40466480	     -3.44604612	      2.15550696	      0.96217612	      1.03191990	    -19.53930144	      3.95501066	    -12.14503399	     20.89497091	      0.36468604	     -7.16989971	     36.70689705	    -11.32088922	     -5.11949102	     71.32428142	      1.24484355	      0.15330402
     12.52000000	     -1.38194463	     -1.56538894	     -3.08816453	      2.15718659	      0.96521995	      1.03077541	    -20.31042589	      2.87564151	    -13.24064404	     20.06611806	      0.35021983	    -11.23799078	     37.45770302	    -10.13477151	     -6.28458367	     66.74359919	      1.16489556	      0.33144496
     12.52666667	     -1.91261540	     -0.77349345	     -2.75626652	      2.15869636	      0.96829628	      1.02922373	    -21.16434084	      1.74495482	    -14.40606584	     19.61875687	      0.34241190	    -14.99268573	     37.70194372	     -8.84647615	     -7.39981255	     61.95518123	      1.08132190	      0.68835635
     12.53333333	     -2.40076877	     -0.08271866	     -2.44409531	      2.16005974	      0.97109652	      1.02724311	    -21.83363003	      0.63601798	    -15.54056655	     19.61356784	      0.34232134	    -18.27243811	     37.73739643	     -7.48122904	     -8.31881728	     57.02089438	      0.99520235	      1.17016098
     12.54000000	     -3.11200520	      0.51667438	     -1.91681652	      2.16104886	      0.97311244	      1.02454358	    -21.93590261	     -0.44442601	    -16.99547664	     20.34616186	      0.35510751	    -20.78418982	     37.97136098	     -5.78740174	     -8.53320094	     52.00907933	      0.90772968	      1.71714118
     12.54666667	     -3.73386679	      1.06413089	     -1.34839751	      2.16182144	      0.97472494	      1.02143830	    -21.89925541	     -1.57439791	    -18.47032443	     21.64487923	      0.37777441	    -22.57249921	     37.96247924	     -3.94253928	     -8.31558775	     46.90997903	      0.81873359	      2.37193053
     12.55333333	     -4.19987324	      1.58688241	     -0.79424629	      2.16230322	      0.97589170	      1.01812211	    -21.75597148	     -2.80296330	    -19.81732767	     23.60595854	      0.41200170	    -23.56584167	     37.63094493	     -1.98061409	     -7.61047777	     41.76629344	      0.72895934	      3.20172093
     12.56000000	     -4.40983883	      2.15967304	     -0.32489867	      2.16256575	      0.97674739	      1.01484836	    -21.63350531	     -4.21706531	    -20.98534357	     26.18434194	      0.45700298	    -23.76140727	     36.82772405	      0.00119557	     -6.63187050	     36.59537962	      0.63870987	      4.12885896
